PathFileType	4	(X/Y/Z)	Run_400 02
DataRate	CameraRate	NumFrames	NumMarkers	Units	OrigDataRate	OrigDataStartFrame	OrigNumFrames
100	100	4	42	mm	100	124	128
Frame#	Time	LASI			RASI			LPSI			RPSI			RTH1			RTH2			RTH3			LTH1			LTH2			LTH3			RTB1			RTB2			RTB3			LTB1			LTB2			LTB3			RCAL			RTOE			RMT5			LCAL			LTOE			LMT5			LACR			RACR			CLAV			C7			RUA1			RUA2			RUA3			RLEL			RMEL			LUA1			LUA2			LUA3			LLEL			LMEL			RFAsuperior			RFAradius			RFAulna			LFAsuperior			LFAradius			LFAulna			
		X1	Y1	Z1	X2	Y2	Z2	X3	Y3	Z3	X4	Y4	Z4	X5	Y5	Z5	X6	Y6	Z6	X7	Y7	Z7	X8	Y8	Z8	X9	Y9	Z9	X10	Y10	Z10	X11	Y11	Z11	X12	Y12	Z12	X13	Y13	Z13	X14	Y14	Z14	X15	Y15	Z15	X16	Y16	Z16	X17	Y17	Z17	X18	Y18	Z18	X19	Y19	Z19	X20	Y20	Z20	X21	Y21	Z21	X22	Y22	Z22	X23	Y23	Z23	X24	Y24	Z24	X25	Y25	Z25	X26	Y26	Z26	X27	Y27	Z27	X28	Y28	Z28	X29	Y29	Z29	X30	Y30	Z30	X31	Y31	Z31	X32	Y32	Z32	X33	Y33	Z33	X34	Y34	Z34	X35	Y35	Z35	X36	Y36	Z36	X37	Y37	Z37	X38	Y38	Z38	X39	Y39	Z39	X40	Y40	Z40	X41	Y41	Z41	X42	Y42	Z42	

117	1.7	789.882726	1020.328941	-428.622236	775.39602	1029.1247	-169.192298	614.9427470000001	1054.930011	-354.622112	607.401555	1049.31977	-251.948391	735.397522	841.448506	-128.020585	865.71596	780.859234	-135.652063	858.664217	653.046486	-171.243239	649.305379	845.852968	-478.831282	667.932851	707.615464	-451.004706	566.597762	621.431543	-435.362529	961.600957	441.204036	-235.580218	919.616774	388.453454	-175.487585	912.280564	277.785558	-238.766802	470.543722	398.149641	-358.128393	384.042768	359.405821	-421.75578	371.501405	276.218273	-350.877755	778.325498	164.686763	-261.571052	995.434979	103.03698	-256.530029	938.450229	90.25344200000001	-177.882836	200.941587	241.167341	-342.765469	346.594193	71.545123	-301.346396	297.435492	76.45551500000001	-393.862622	793.295746	1490.931704	-469.270983	732.728668	1524.492863	-148.349053	812.697136	1444.736327	-262.511985	699.320396	1525.052986	-320.685234	646.492123	1477.198049	-79.80062	572.609627	1428.193346	-126.451087	567.064078	1377.389849	-63.9662	491.139295	1295.302503	-48.340792	493.071931	1288.224934	-130.526549	776.2739319999999	1398.63012	-552.486446	719.116322	1315.874709	-539.769082	750.396241	1253.730913	-585.526373	771.366508	1169.710091	-606.696498	728.574289	1156.294596	-537.982334	561.1344360000001	1214.123272	-24.240251	673.0312719999999	1101.273315	-38.004677	610.862081	1064.886647	-40.644072	871.750481	1177.6988	-560.292885	981.967228	1194.598718	-442.030943	996.059184	1129.051645	-469.756889	
118	1.71	792.028192	1023.032782	-427.037796	777.671828	1033.398635	-169.279706	617.250133	1059.489747	-354.917559	609.587508	1054.040176	-252.280845	735.6088140000001	846.768307	-128.4023	864.949188	783.601617	-137.106575	854.940017	655.484674	-172.003329	645.615315	851.470815	-479.593936	662.1357420000001	711.961062	-453.221055	558.9413479999999	629.036216	-436.222784	969.84078	442.167679	-236.17359	935.551662	384.614435	-175.379835	939.938678	274.410543	-241.539797	457.866875	407.269617	-360.784254	370.222578	371.700851	-424.973311	356.415812	287.5312	-355.121233	820.976717	144.671507	-261.416808	1044.525882	113.478459	-262.235204	990.141674	91.166618	-179.951144	190.081407	263.731833	-347.145825	315.04073	78.159087	-303.826011	266.290502	87.445046	-395.229936	795.031388	1495.41611	-467.192903	731.678711	1527.503425	-147.678805	812.216003	1448.310776	-260.802662	699.442276	1528.324058	-320.230035	644.29207	1481.882718	-80.464628	571.357165	1433.878235	-128.79804	563.269163	1383.230291	-66.934179	486.270238	1301.541518	-52.514561	490.347298	1294.707477	-134.4059	780.605444	1404.150675	-551.559527	723.312764	1321.834682	-541.711458	755.414555	1259.308742	-586.226619	776.8502	1175.337899	-606.663646	731.478495	1161.557065	-539.157862	555.806818	1220.022687	-27.255426	668.733865	1107.334695	-39.391986	606.519714	1070.750307	-43.32849	874.967191	1185.786021	-556.758828	980.578208	1205.813956	-435.306134	997.728466	1140.589462	-462.252839	
119	1.72	792.910164	1025.496992	-426.155469	779.833185	1036.223391	-169.695127	618.757528	1063.394265	-355.227241	611.562878	1057.379767	-252.739582	735.5217259999999	849.975052	-128.401461	863.872757	784.424504	-138.446461	851.084021	655.0463109999999	-170.816915	645.111454	856.1077	-479.56069	659.040493	715.301915	-454.706033	555.1319580000001	634.148023	-436.537412	975.101855	441.478715	-236.520822	947.764698	380.316959	-174.890652	963.884084	271.640101	-243.619479	448.653284	413.978697	-362.492602	360.105402	381.881744	-427.441328	343.234354	297.880681	-358.24534	861.183085	127.99133	-260.206785	1086.447694	127.562577	-266.506352	1037.097245	96.673534	-181.751314	182.219274	286.27842	-351.420688	284.392706	87.007234	-307.128123	235.796008	101.578022	-397.264845	795.958321	1499.01832	-465.336018	731.2751510000001	1529.435725	-146.853051	811.928343	1450.903283	-259.431873	699.5840009999999	1530.76794	-319.642071	642.921652	1485.371961	-80.76284200000001	570.985771	1437.917413	-130.647534	560.604294	1387.569834	-69.430556	482.840077	1306.139703	-55.934667	489.199417	1299.235844	-137.440536	783.693114	1408.847044	-550.65144	726.606211	1326.645524	-543.040902	759.432312	1264.087406	-586.888185	781.407042	1180.153157	-606.839274	733.707358	1165.950499	-540.635545	552.055444	1224.329541	-29.696846	666.162273	1111.94169	-40.405841	604.00999	1075.056371	-45.625874	877.302627	1192.306523	-553.591978	978.40082	1214.306578	-429.261112	998.296051	1149.732979	-455.568616	
120	1.73	792.635187	1027.787144	-425.875693	781.699972	1037.698338	-170.33503	619.468568	1066.632157	-355.406526	613.056918	1059.792997	-253.115799	735.414022	851.368813	-128.108988	862.742828	783.59836	-139.420971	847.008156	651.901328	-168.500785	647.2464199999999	859.10292	-478.68082	658.936363	717.211911	-455.191128	555.2002189999999	636.283221	-436.280356	977.991497	439.518679	-236.718306	956.056223	376.164503	-174.036708	983.152907	269.742813	-244.342791	442.701902	418.201398	-363.713355	353.364194	390.423609	-429.370807	331.514811	307.391888	-360.592987	896.26114	115.42857	-258.442625	1119.331117	143.634072	-268.890528	1076.267595	105.243612	-183.323432	175.837147	308.306468	-355.37784	254.415371	98.416811	-310.801185	206.080993	118.573376	-399.90282	796.105111	1501.644414	-463.719979	731.532282	1530.240602	-145.759287	811.804932	1452.446907	-258.384507	699.737063	1532.276894	-318.775063	642.470513	1487.475652	-80.539779	571.480441	1440.117007	-131.83662	559.1845070000001	1390.063194	-71.25949799999999	480.880207	1308.86614	-58.44658	489.04207	1301.728879	-139.536255	785.282504	1412.453154	-549.695641	728.559084	1330.085078	-543.498419	762.279593	1267.919078	-587.510611	784.9135219999999	1183.987511	-607.059486	735.207905	1169.395266	-542.251265	549.994042	1226.948502	-31.385447	665.3686760000001	1114.960407	-40.839782	603.4120359999999	1077.633306	-47.283335	878.812966	1197.050663	-550.853922	975.5609899999999	1219.992717	-423.708261	997.836007	1156.199446	-449.710853	
